<svg width="66" height="83" viewBox="0 0 66 83" fill="none" xmlns="http://www.w3.org/2000/svg">
<path d="M55.4993 22.5939C61.4146 28.4137 65.0833 36.5102 65.0833 45.464L65.0725 46.2921C64.6332 63.6281 50.4421 77.5469 33.0002 77.547L32.1721 77.5363C31.3416 77.5152 30.519 77.4611 29.7053 77.3781L30.7327 75.1964C31.4812 75.2527 32.2373 75.2823 33.0002 75.2823C49.4682 75.2822 62.8185 61.932 62.8186 45.464C62.8186 37.4292 59.6395 30.1375 54.4719 24.7755L55.4993 22.5939ZM33.8284 13.3917C35.1721 13.4258 36.4954 13.542 37.7932 13.7365L36.7825 15.8829C35.5438 15.7261 34.2814 15.6456 33.0002 15.6456C16.5321 15.6456 3.18188 28.9959 3.18188 45.464C3.18194 54.0458 6.80874 61.7795 12.6116 67.2198L11.6018 69.3654C5.23613 63.6624 1.1602 55.4556 0.927979 46.2921L0.917236 45.464C0.917236 27.7451 15.2814 13.381 33.0002 13.381L33.8284 13.3917Z" fill="#4193FF"/>
<path d="M22.5485 43.2309C22.7488 51.7435 17.7788 56.577 10.731 56.6508C35.3675 65.564 47.6858 35.4193 28.257 34.5179C20.7458 35.0187 18.4424 41.1278 18.5426 49.9408C19.4162 49.4535 20.3683 47.7527 22.5485 43.2309Z" fill="#4193FF"/>
<path d="M43.0968 32.9137L38.5675 37.6318C36.1414 34.4328 34.5512 33.2973 31.2073 32.725L34.2268 27.4408C38.2785 28.1766 40.1486 29.5465 43.0968 32.9137Z" fill="#4193FF"/>
<path d="M59.9874 0.264739C62.4408 4.51099 54.2192 20.0753 44.5122 31.4983C41.4322 27.9718 39.3907 26.6618 35.1704 25.5536C44.7009 9.51214 56.9679 -1.90556 59.9874 0.264739Z" fill="#4193FF"/>
<g clip-path="url(#clip0_1416_5638)">
<path fill-rule="evenodd" clip-rule="evenodd" d="M20.6526 63.1325C21.5687 64.1319 22.4481 65.1686 23.2659 66.2503C23.9531 67.1593 24.5997 68.1038 25.176 69.0874C26.0482 70.5759 26.8039 72.2283 27.1474 73.9274C27.2807 74.5866 27.3525 75.2606 27.3361 75.9335C27.3218 76.5184 27.2403 77.1003 27.0768 77.6624C26.7839 78.6694 26.2441 79.5549 25.4756 80.2689C24.1556 81.4952 22.3253 82.0759 20.5439 82.076C18.7627 82.0761 16.9325 81.4957 15.6126 80.2694C14.8441 79.5555 14.3044 78.6701 14.0116 77.6631C13.8482 77.101 13.7668 76.519 13.7525 75.9343C13.7362 75.2613 13.8081 74.5873 13.9415 73.9281C14.2852 72.229 15.0411 70.5765 15.9133 69.0879C16.4897 68.1042 17.1364 67.1597 17.8238 66.2505C18.6416 65.1689 19.5212 64.132 20.4373 63.1325L20.545 63.0151L20.6526 63.1325ZM24.0714 75.8051C24.0532 76.7542 23.8023 77.723 23.0884 78.391C22.9015 78.566 22.8916 78.8602 23.0665 79.0472C23.2414 79.2342 23.5356 79.244 23.7225 79.0691C24.616 78.233 24.9623 77.0549 24.9939 75.8606C25.0055 75.4269 24.9764 74.9906 24.9116 74.5617C24.8843 74.3814 24.8521 74.2011 24.807 74.0244C24.744 73.7773 24.4893 73.626 24.2422 73.689C23.9948 73.7521 23.8433 74.007 23.9071 74.2544C23.9455 74.4035 23.9726 74.5565 23.996 74.7086C24.0517 75.0707 24.0783 75.4388 24.0714 75.8051Z" fill="#4193FF"/>
</g>
<defs>
<clipPath id="clip0_1416_5638">
<rect width="13.5898" height="19.0585" fill="white" transform="translate(13.7502 63.015)"/>
</clipPath>
</defs>
</svg>
