<svg width="57" height="74" viewBox="0 0 57 74" fill="none" xmlns="http://www.w3.org/2000/svg">
<path d="M48.4414 21.0524C53.6912 26.2174 56.9473 33.4027 56.9473 41.3492L56.9375 42.0836C56.5479 57.4696 43.9535 69.8228 28.4736 69.8229L27.7383 69.8131C27.0011 69.7944 26.2711 69.7462 25.5488 69.6725L26.4609 67.7369C27.1253 67.7869 27.7965 67.8131 28.4736 67.8131C43.089 67.813 54.9374 55.9646 54.9375 41.3492C54.9375 34.2184 52.1165 27.7467 47.5303 22.9879L48.4414 21.0524ZM29.208 12.8854C30.4005 12.9156 31.5748 13.0195 32.7266 13.192L31.8301 15.0963C30.7309 14.9572 29.6106 14.8854 28.4736 14.8854C13.8582 14.8854 2.00977 26.7338 2.00977 41.3492C2.0098 48.9654 5.22806 55.8295 10.3779 60.6578L9.48242 62.5611C3.833 57.4997 0.215695 50.2162 0.00976562 42.0836L0 41.3492C0 25.6238 12.7481 12.8756 28.4736 12.8756L29.208 12.8854Z" fill="#171717"/>
<path d="M16.5 37.5C19 36.9947 21.3458 36.3063 22.6823 39.5037C24.0187 42.7011 27.694 41.8351 29.3646 41.0025C30.3555 40.6214 31.9079 40.4729 31.9961 42.0196C32.023 42.4919 31.9134 43.1223 31.6095 43.9525L31.5 44.5L30 46.5L28.5 48L26 50L23.5 51.5L20 52.5H13L9 51.5L11 51L14 50L16 48.5L18 46L19 43V40.5L17.5 42.5L16 45L15.5 45.5V43L16 40L16.5 38V37.5Z" fill="#4193FF"/>
<path d="M31.592 44C32.9284 40.4029 30.6639 40.5029 29.3646 41.0025C27.694 41.8351 24.0187 42.7011 22.6823 39.5037C21.3458 36.3063 19 36.9947 16.5 37.5V38L16 40L15.5 43V45.5L16 45L17.5 42.5L19 40.5V43L18 46L16 48.5L14 50L11 51L9 51.5L13 52.5H20L23.5 51.5L26 50L28.5 48L30 46.5L31.5 44.5L32 42" stroke="#4193FF" stroke-width="0.5"/>
<path d="M19.1977 39.3674C19.3754 46.9223 14.9646 51.2121 8.70959 51.2775C30.5746 59.188 41.507 32.4346 24.2639 31.6346C17.5978 32.079 15.5535 37.5008 15.6424 45.3224C16.4177 44.8899 17.2627 43.3805 19.1977 39.3674Z" stroke="black" stroke-width="0.75"/>
<path d="M37.4343 30.2109L33.4145 34.3982C31.2613 31.5591 29.85 30.5514 26.8823 30.0435L29.5622 25.3537C33.158 26.0067 34.8178 27.2225 37.4343 30.2109Z" fill="#878787" stroke="black" stroke-width="0.75"/>
<path d="M52.4247 1.23496C54.6021 5.00351 47.3055 18.8169 38.6905 28.9548C35.957 25.825 34.1451 24.6624 30.3997 23.6788C38.858 9.44203 49.7449 -0.691182 52.4247 1.23496Z" fill="black" stroke="#252525" stroke-width="0.75"/>
<g clip-path="url(#clip0_71_2)">
<path fill-rule="evenodd" clip-rule="evenodd" d="M17.5154 57.03C18.3284 57.917 19.1089 58.8371 19.8347 59.797C20.4446 60.6038 21.0184 61.442 21.5299 62.3149C22.3039 63.636 22.9746 65.1026 23.2795 66.6105C23.3978 67.1955 23.4616 67.7936 23.447 68.3909C23.4343 68.9099 23.362 69.4264 23.2168 69.9253C22.9569 70.819 22.4778 71.6048 21.7957 72.2385C20.6243 73.3269 18.9999 73.8423 17.4189 73.8424C15.8381 73.8424 14.2138 73.3273 13.0424 72.239C12.3603 71.6054 11.8813 70.8196 11.6215 69.926C11.4764 69.427 11.4042 68.9105 11.3916 68.3916C11.377 67.7943 11.4409 67.1962 11.5593 66.6111C11.8643 65.1031 12.5351 63.6365 13.3093 62.3154C13.8208 61.4424 14.3948 60.6042 15.0048 59.7973C15.7306 58.8373 16.5112 57.9171 17.3243 57.03L17.4198 56.9258L17.5154 57.03ZM20.5495 68.2769C20.5334 69.1193 20.3107 69.9791 19.6772 70.5719C19.5113 70.7272 19.5025 70.9883 19.6577 71.1543C19.813 71.3203 20.074 71.329 20.2399 71.1737C21.0329 70.4317 21.3403 69.3861 21.3683 68.3262C21.3785 67.9413 21.3527 67.5541 21.2952 67.1735C21.271 67.0134 21.2424 66.8534 21.2024 66.6965C21.1465 66.4772 20.9204 66.343 20.7011 66.3989C20.4816 66.4549 20.3471 66.6811 20.4038 66.9007C20.4379 67.033 20.4619 67.1688 20.4826 67.3038C20.532 67.6251 20.5557 67.9518 20.5495 68.2769Z" fill="#4193FF"/>
</g>
<defs>
<clipPath id="clip0_71_2">
<rect width="12.0609" height="16.9144" fill="white" transform="translate(11.3894 56.9258)"/>
</clipPath>
</defs>
</svg>
